<?xml version="1.0" encoding="UTF-8"?>
<svg version="1.1" xmlns="http://www.w3.org/2000/svg" width="500" height="500">
<path d="M0 0 C1.74276466 -0.00043808 1.74276466 -0.00043808 3.52073669 -0.00088501 C7.34072475 0.00050242 11.16051499 0.01603621 14.98046875 0.03173828 C17.63704763 0.0354705 20.29361571 0.03841494 22.95019531 0.04031372 C29.21504727 0.04651213 35.47982883 0.06290057 41.74464989 0.0830127 C48.88132813 0.10542295 56.01800987 0.11637798 63.15471458 0.12640357 C77.8258355 0.14726839 92.49690114 0.18241224 107.16796875 0.22705078 C107.01304013 1.82685416 106.85667626 3.4265186 106.69970703 5.02612305 C106.61278595 5.91695084 106.52586487 6.80777863 106.43630981 7.7256012 C104.895996 22.08425842 98.1906054 32.7413362 87.21875 41.84423828 C78.26793784 48.49530388 66.14774033 51.31668404 55.09936523 51.38476562 C53.89718857 51.39502777 52.6950119 51.40528992 51.45640564 51.41586304 C50.1636824 51.42316437 48.87095917 51.4304657 47.5390625 51.43798828 C46.18489281 51.45097255 44.83073089 51.46479088 43.47657776 51.47940063 C37.74707032 51.54065053 32.01758348 51.59480244 26.2878418 51.62841797 C22.77405991 51.64957872 19.26065264 51.68505188 15.74708748 51.72917557 C13.78219269 51.74990149 11.81715533 51.75534615 9.85215759 51.76034546 C-5.84656466 51.97278092 -18.93836277 55.78653225 -30.49609375 66.68798828 C-35.42775463 72.04848924 -39.7647599 77.90108943 -40.83203125 85.22705078 C-41.49203125 85.22705078 -42.15203125 85.22705078 -42.83203125 85.22705078 C-43.16203125 86.21705078 -43.49203125 87.20705078 -43.83203125 88.22705078 C-45.83203125 87.22705078 -45.83203125 87.22705078 -46.83203125 84.22705078 C-48.67252121 67.93530628 -49.35970107 50.28018115 -45.83203125 34.22705078 C-45.64898437 33.28990234 -45.4659375 32.35275391 -45.27734375 31.38720703 C-43.00228939 21.37415915 -37.61767152 11.87104838 -28.83203125 6.22705078 C-19.43346446 1.11137518 -10.55034413 -0.0699857 0 0 Z " fill="#20B2FA" transform="translate(94.83203125,172.77294921875)"/>
<path d="M0 0 C0.84929077 -0.00014603 1.69858154 -0.00029205 2.5736084 -0.0004425 C5.37095729 0.0002522 8.16823896 0.0080239 10.96557617 0.01586914 C12.90899113 0.01773489 14.85240655 0.01915805 16.79582214 0.02015686 C21.90364894 0.02396968 27.01144717 0.03378942 32.1192627 0.04486084 C37.33430597 0.05510152 42.54935386 0.05966017 47.7644043 0.06469727 C57.99163037 0.07541279 68.21883527 0.09247438 78.44604492 0.11352539 C78.3026064 1.54218867 78.15477727 2.97041153 78.00512695 4.3984375 C77.92328156 5.19382431 77.84143616 5.98921112 77.7571106 6.80870056 C76.40472754 16.82911205 71.44096665 25.44263545 63.53588867 31.60180664 C54.92801181 37.40313916 45.43713148 39.21776429 35.21557617 39.35961914 C33.59122219 39.39257579 31.96687337 39.42578711 30.3425293 39.45922852 C27.80635308 39.5064166 25.27019493 39.55084401 22.73388672 39.59033203 C13.75232174 39.73676583 5.2080223 39.90289371 -3.55395508 42.11352539 C-3.65192383 43.36907227 -3.74989258 44.62461914 -3.85083008 45.91821289 C-4.91077353 58.24359487 -6.45756164 68.31262808 -14.55395508 78.11352539 C-15.21395508 78.11352539 -15.87395508 78.11352539 -16.55395508 78.11352539 C-16.55395508 78.77352539 -16.55395508 79.43352539 -16.55395508 80.11352539 C-22.71431479 86.13959933 -29.98032514 89.2276517 -38.55395508 89.36352539 C-42.38374231 89.28373816 -42.38374231 89.28373816 -43.55395508 88.11352539 C-43.68024731 85.56146559 -43.74268686 83.03813584 -43.75708008 80.48461914 C-43.76278015 79.7027272 -43.76848022 78.92083527 -43.77435303 78.11524963 C-43.78383182 76.44647582 -43.79034836 74.77768304 -43.79418945 73.10888672 C-43.80371722 70.61332514 -43.8346322 68.11865252 -43.86645508 65.62329102 C-43.98896996 47.3789261 -41.94301604 24.87170834 -28.55395508 11.11352539 C-20.13153022 2.63136702 -11.82255549 -0.0534297 0 0 Z " fill="#14D4FA" transform="translate(93.553955078125,229.886474609375)"/>
<path d="M0 0 C1.65 0.33 3.3 0.66 5 1 C5 51.16 5 101.32 5 153 C3.35 153.33 1.7 153.66 0 154 C-1.79134787 152.20865213 -1.12616862 149.53424125 -1.12698364 147.1159668 C-1.12980347 145.83708588 -1.13262329 144.55820496 -1.13552856 143.24057007 C-1.13358397 141.81011949 -1.13153578 140.37966905 -1.12939453 138.94921875 C-1.13074852 137.45317543 -1.13252843 135.95713244 -1.13470459 134.46109009 C-1.13927925 130.38682367 -1.13748923 126.31258246 -1.1343255 122.23831558 C-1.13180207 117.98399027 -1.13413939 113.72966719 -1.13571167 109.4753418 C-1.13753342 102.32958588 -1.13512693 95.18384029 -1.13037109 88.03808594 C-1.12492846 79.76461428 -1.12669112 71.49116725 -1.1321975 63.21769619 C-1.13672849 56.12727109 -1.13737925 49.03685343 -1.13475883 41.94642735 C-1.13319598 37.70592914 -1.13300251 33.46544254 -1.13629532 29.22494507 C-1.13917383 25.23922949 -1.13719871 21.25354582 -1.13140106 17.26783371 C-1.13007336 15.8008263 -1.13046776 14.33381622 -1.13266373 12.86680984 C-1.13537478 10.87255191 -1.13138081 8.87828813 -1.12698364 6.8840332 C-1.12660662 5.76535355 -1.12622959 4.64667389 -1.12584114 3.49409485 C-1 1 -1 1 0 0 Z " fill="#85807F" transform="translate(221,173)"/>
<path d="M0 0 C0.52052343 14.08305049 0.33589828 24.69864945 -9 36 C-9.66 36 -10.32 36 -11 36 C-11 36.66 -11 37.32 -11 38 C-15.95660865 42.9701144 -21.13920202 45.07887435 -28 46 C-27.01 45.505 -27.01 45.505 -26 45 C-27.31201173 43.43750191 -27.31201173 43.43750191 -29 42 C-29.99 42 -30.98 42 -32 42 C-33.11937482 36.82289146 -33.27670227 34.11337496 -30.5625 29.5 C-29.07401031 26.95557318 -27.93683365 24.81050095 -27 22 C-26.34 22 -25.68 22 -25 22 C-25.12375 20.9171875 -25.12375 20.9171875 -25.25 19.8125 C-24.84964246 15.30847768 -21.95064507 12.86819116 -18.703125 9.90234375 C-6.33996024 0 -6.33996024 0 0 0 Z " fill="#1FB1FB" transform="translate(88,272)"/>
<path d="M0 0 C3.3 0 6.6 0 10 0 C10.33 4.95 10.66 9.9 11 15 C12.32 15 13.64 15 15 15 C15 10.05 15 5.1 15 0 C18.63 0 22.26 0 26 0 C26.08133037 3.52130364 26.14066172 7.04070754 26.1875 10.5625 C26.21263672 11.55314453 26.23777344 12.54378906 26.26367188 13.56445312 C26.33522542 20.74365924 25.67970352 25.73411134 21 31.4375 C16.44902004 33.80780206 12.03155781 33.31722606 7 33 C7 30 7 27 7 24 C6.01 23.67 5.02 23.34 4 23 C4 22.34 4 21.68 4 21 C3.34 21 2.68 21 2 21 C-0.71486934 17.02389214 -0.22440753 12.86098023 -0.125 8.25 C-0.11597656 7.45722656 -0.10695313 6.66445312 -0.09765625 5.84765625 C-0.07417012 3.89830719 -0.03830137 1.94911425 0 0 Z " fill="#68A1E0" transform="translate(330,207)"/>
<path d="M0 0 C2.57161458 0.03255208 5.14322917 0.06510417 7.71484375 0.09765625 C7.71484375 4.38765625 7.71484375 8.67765625 7.71484375 13.09765625 C10.68484375 10.78765625 13.65484375 8.47765625 16.71484375 6.09765625 C20.48172239 7.98109557 21.50906021 8.78898094 23.71484375 12.09765625 C22.61732145 15.09089888 22.03801483 15.94376526 19.08984375 17.34765625 C18.30609375 17.59515625 17.52234375 17.84265625 16.71484375 18.09765625 C17.41823941 20.60731239 17.41823941 20.60731239 18.71484375 23.09765625 C20.75590014 23.98458928 20.75590014 23.98458928 22.71484375 24.09765625 C22.75726098 26.430604 22.75577312 28.76468192 22.71484375 31.09765625 C21.71484375 32.09765625 21.71484375 32.09765625 19.7890625 32.15234375 C13.27944552 31.66225802 13.27944552 31.66225802 10.15234375 28.53515625 C9.67796875 27.73078125 9.20359375 26.92640625 8.71484375 26.09765625 C8.05484375 28.07765625 7.39484375 30.05765625 6.71484375 32.09765625 C5.23577483 32.12454841 3.75656892 32.14400246 2.27734375 32.16015625 C1.45363281 32.17175781 0.62992187 32.18335938 -0.21875 32.1953125 C-2.28515625 32.09765625 -2.28515625 32.09765625 -3.28515625 31.09765625 C-3.38528026 28.89114969 -3.41596805 26.68143239 -3.41796875 24.47265625 C-3.41892548 23.81056152 -3.4198822 23.1484668 -3.42086792 22.46630859 C-3.42154951 21.06412664 -3.41969667 19.66194155 -3.41552734 18.25976562 C-3.41017871 16.10669912 -3.41547295 13.95384123 -3.421875 11.80078125 C-3.42121421 10.44140579 -3.41993304 9.08203045 -3.41796875 7.72265625 C-3.41684082 6.47742188 -3.41571289 5.2321875 -3.41455078 3.94921875 C-3.24163432 0.13853138 -3.24163432 0.13853138 0 0 Z " fill="#3293F9" transform="translate(279.28515625,198.90234375)"/>
<path d="M0 0 C7.26 0 14.52 0 22 0 C22 2.64 22 5.28 22 8 C18.04 8 14.08 8 10 8 C10.33 8.99 10.66 9.98 11 11 C10.67 11.66 10.34 12.32 10 13 C10.71027344 12.98839844 11.42054688 12.97679687 12.15234375 12.96484375 C13.07144531 12.95582031 13.99054688 12.94679687 14.9375 12.9375 C15.85402344 12.92589844 16.77054688 12.91429687 17.71484375 12.90234375 C20 13 20 13 21 14 C21.04080783 15.99958364 21.04254356 18.00045254 21 20 C16.05 20.495 16.05 20.495 11 21 C11.020625 22.44375 11.04125 23.8875 11.0625 25.375 C11.125 29.75 11.125 29.75 10 32 C6.7 32 3.4 32 0 32 C-1.3083923 25.32235335 -0.8972663 18.83093598 -0.5625 12.0625 C-0.51029297 10.90169922 -0.45808594 9.74089844 -0.40429688 8.54492188 C-0.27534896 5.69634528 -0.13846555 2.84812982 0 0 Z " fill="#3697F5" transform="translate(230,199)"/>
<path d="M0 0 C0.7734375 0.495 0.7734375 0.495 1.5625 1 C1.6875 3.375 1.6875 3.375 1.5625 6 C0.9025 6.66 0.2425 7.32 -0.4375 8 C0.243125 8.721875 0.92375 9.44375 1.625 10.1875 C3.5625 13 3.5625 13 3.5 15.5625 C2.49541503 18.17442093 1.46617768 19.94988558 -0.4375 22 C-5.24098505 23.60116168 -10.6023862 23.6117046 -15.4375 22 C-15.5625 16.25 -15.5625 16.25 -14.4375 14 C-13.4475 14 -12.4575 14 -11.4375 14 C-12.283125 13.29875 -13.12875 12.5975 -14 11.875 C-16.4375 9 -16.4375 9 -16.4375 5.875 C-15.44293826 3.01563499 -14.84888526 1.76216615 -12.4375 0 C-8.17949462 -1.41933513 -4.20838462 -1.72651677 0 0 Z " fill="#3591F6" transform="translate(390.4375,208)"/>
<path d="M0 0 C3.63 0 7.26 0 11 0 C11 10.56 11 21.12 11 32 C7.7 32 4.4 32 1 32 C0 31 0 31 -0.11352539 28.04077148 C-0.10828857 26.74727783 -0.10305176 25.45378418 -0.09765625 24.12109375 C-0.0962413 23.4344313 -0.09482635 22.74776886 -0.09336853 22.04029846 C-0.08775479 19.83932199 -0.07520007 17.63844591 -0.0625 15.4375 C-0.05748676 13.94856917 -0.05292355 12.45963676 -0.04882812 10.97070312 C-0.03778093 7.31376925 -0.02050713 3.65689442 0 0 Z " fill="#2B92FB" transform="translate(258,199)"/>
<path d="M0 0 C0.99 0 1.98 0 3 0 C3 23.43 3 46.86 3 71 C2.67 71 2.34 71 2 71 C1.67 65.72 1.34 60.44 1 55 C1 86.68 1 118.36 1 151 C0.34 151 -0.32 151 -1 151 C-1.02332758 131.45970205 -1.04097848 111.91940691 -1.05181217 92.37909794 C-1.05697543 83.30684507 -1.06401869 74.23460084 -1.07543945 65.16235352 C-1.08538538 57.25791288 -1.09185321 49.35347849 -1.09408849 41.44903177 C-1.09539576 37.26105281 -1.09848259 33.07309173 -1.10573006 28.88511848 C-1.11248884 24.94784702 -1.11461725 21.01060092 -1.11310768 17.0733242 C-1.11338407 15.62405383 -1.11539004 14.17478265 -1.11920547 12.72551727 C-1.12414043 10.75529586 -1.12239809 8.78506102 -1.12025452 6.81483459 C-1.12117631 5.70960481 -1.1220981 4.60437502 -1.12304783 3.46565342 C-1 1 -1 1 0 0 Z " fill="#3D3432" transform="translate(222,174)"/>
<path d="M0 0 C3.63 0 7.26 0 11 0 C11 0.66 11 1.32 11 2 C12.98 1.34 14.96 0.68 17 0 C18.4783226 2.95664519 18.06032783 5.74229737 18 9 C16.02 9.66 14.04 10.32 12 11 C11.93941406 11.85464844 11.87882812 12.70929688 11.81640625 13.58984375 C11.73261719 14.69457031 11.64882813 15.79929688 11.5625 16.9375 C11.48128906 18.03964844 11.40007812 19.14179688 11.31640625 20.27734375 C11 23 11 23 10 24 C8.50261876 24.0979057 7.00057108 24.12974864 5.5 24.125 C4.6853125 24.12757813 3.870625 24.13015625 3.03125 24.1328125 C1 24 1 24 0 23 C-0.08713831 21.29227642 -0.10700007 19.58101351 -0.09765625 17.87109375 C-0.09443359 16.83662109 -0.09121094 15.80214844 -0.08789062 14.73632812 C-0.07951172 13.64771484 -0.07113281 12.55910156 -0.0625 11.4375 C-0.05798828 10.34501953 -0.05347656 9.25253906 -0.04882812 8.12695312 C-0.0369984 5.41794568 -0.01906231 2.7089662 0 0 Z " fill="#3592F3" transform="translate(307,207)"/>
<path d="M0 0 C0.84929077 -0.00014603 1.69858154 -0.00029205 2.5736084 -0.0004425 C5.37095729 0.0002522 8.16823896 0.0080239 10.96557617 0.01586914 C12.90899113 0.01773489 14.85240655 0.01915805 16.79582214 0.02015686 C21.90364894 0.02396968 27.01144717 0.03378942 32.1192627 0.04486084 C37.33430597 0.05510152 42.54935386 0.05966017 47.7644043 0.06469727 C57.99163037 0.07541279 68.21883527 0.09247438 78.44604492 0.11352539 C78.3026064 1.54218867 78.15477727 2.97041153 78.00512695 4.3984375 C77.92328156 5.19382431 77.84143616 5.98921112 77.7571106 6.80870056 C76.40472754 16.82911205 71.44096665 25.44263545 63.53588867 31.60180664 C58.75537277 34.82366527 52.09207346 38.80501356 46.18041992 37.68383789 C45.3219043 37.4015332 45.3219043 37.4015332 44.44604492 37.11352539 C48.30997866 34.53756956 52.27053296 33.51427759 56.82104492 32.67602539 C57.35729492 32.49040039 57.89354492 32.30477539 58.44604492 32.11352539 C58.94104492 30.62852539 58.94104492 30.62852539 59.44604492 29.11352539 C60.41541992 28.63915039 61.38479492 28.16477539 62.38354492 27.67602539 C65.54816129 26.0614252 66.3207452 25.37689457 67.44604492 22.11352539 C68.10604492 22.11352539 68.76604492 22.11352539 69.44604492 22.11352539 C69.66260742 21.18540039 69.66260742 21.18540039 69.88354492 20.23852539 C70.44604492 18.11352539 70.44604492 18.11352539 71.44604492 16.11352539 C72.10604492 16.11352539 72.76604492 16.11352539 73.44604492 16.11352539 C73.42541992 15.14415039 73.40479492 14.17477539 73.38354492 13.17602539 C73.44604492 10.11352539 73.44604492 10.11352539 74.44604492 9.11352539 C74.81365223 6.78534575 75.14846073 4.45168689 75.44604492 2.11352539 C65.68453504 2.09040093 55.92303162 2.07260978 46.16149998 2.06171322 C41.62930398 2.05648461 37.09712665 2.04938738 32.56494141 2.03808594 C28.19481662 2.02725625 23.82470984 2.02124838 19.45457268 2.01864815 C17.7835353 2.01679405 16.11249895 2.01317371 14.44146919 2.00779533 C12.10906941 2.0005838 9.77674499 1.99953449 7.44433594 2 C6.74662582 1.99640472 6.04891571 1.99280945 5.33006287 1.98910522 C2.10945111 1.72290073 2.10945111 1.72290073 -0.55395508 3.11352539 C-2.44724001 3.27252599 -4.34403557 3.39050372 -6.24145508 3.48852539 C-11.03745663 3.83639233 -14.38277547 4.58886405 -18.55395508 7.11352539 C-19.21395508 7.11352539 -19.87395508 7.11352539 -20.55395508 7.11352539 C-20.88395508 8.10352539 -21.21395508 9.09352539 -21.55395508 10.11352539 C-23.42895508 11.36352539 -23.42895508 11.36352539 -25.55395508 12.11352539 C-26.54395508 11.78352539 -27.53395508 11.45352539 -28.55395508 11.11352539 C-19.70267534 2.81545064 -12.13702677 -0.05485089 0 0 Z " fill="#58C8E9" transform="translate(93.553955078125,229.886474609375)"/>
<path d="M0 0 C39.27 0 78.54 0 119 0 C117.85898538 11.41014617 117.85898538 11.41014617 116.5625 16.5625 C116.31628906 17.57441406 116.07007813 18.58632812 115.81640625 19.62890625 C115 22 115 22 113 23 C113.14033111 21.02043559 113.2874123 19.04134859 113.4375 17.0625 C113.55931641 15.40927734 113.55931641 15.40927734 113.68359375 13.72265625 C114 11 114 11 115 10 C115.23075082 8.65252916 115.41153063 7.29622435 115.5625 5.9375 C115.706875 4.638125 115.85125 3.33875 116 2 C115.13405921 2.04639067 115.13405921 2.04639067 114.25062466 2.09371853 C99.54199064 2.86051372 84.91604715 3.08540086 70.19140625 2.87890625 C68.11678193 2.85450489 66.04215092 2.83066707 63.96751404 2.80735779 C58.59355847 2.74550999 53.21972658 2.67618056 47.84588623 2.60510254 C42.32765172 2.53350243 36.80933178 2.46924063 31.29101562 2.40429688 C20.52724983 2.27657137 9.76360067 2.14091417 -1 2 C-0.67 1.34 -0.34 0.68 0 0 Z " fill="#5DADDF" transform="translate(83,173)"/>
<path d="M0 0 C2.57161458 0.03255208 5.14322917 0.06510417 7.71484375 0.09765625 C7.71484375 4.38765625 7.71484375 8.67765625 7.71484375 13.09765625 C10.68484375 10.78765625 13.65484375 8.47765625 16.71484375 6.09765625 C20.48172239 7.98109557 21.50906021 8.78898094 23.71484375 12.09765625 C22.61732145 15.09089888 22.03801483 15.94376526 19.08984375 17.34765625 C18.30609375 17.59515625 17.52234375 17.84265625 16.71484375 18.09765625 C17.37484375 19.74765625 18.03484375 21.39765625 18.71484375 23.09765625 C17.39484375 22.76765625 16.07484375 22.43765625 14.71484375 22.09765625 C14.38484375 19.78765625 14.05484375 17.47765625 13.71484375 15.09765625 C10.51273073 14.97638844 10.51273073 14.97638844 6.71484375 16.09765625 C6.71484375 11.14765625 6.71484375 6.19765625 6.71484375 1.09765625 C4.07484375 1.09765625 1.43484375 1.09765625 -1.28515625 1.09765625 C-1.28515625 10.66765625 -1.28515625 20.23765625 -1.28515625 30.09765625 C1.02484375 30.09765625 3.33484375 30.09765625 5.71484375 30.09765625 C6.04484375 27.78765625 6.37484375 25.47765625 6.71484375 23.09765625 C8.58984375 23.28515625 8.58984375 23.28515625 10.71484375 24.09765625 C11.96484375 26.66015625 11.96484375 26.66015625 12.71484375 29.09765625 C15.35484375 29.42765625 17.99484375 29.75765625 20.71484375 30.09765625 C20.38484375 28.11765625 20.05484375 26.13765625 19.71484375 24.09765625 C20.70484375 24.09765625 21.69484375 24.09765625 22.71484375 24.09765625 C22.75726098 26.430604 22.75577312 28.76468192 22.71484375 31.09765625 C21.71484375 32.09765625 21.71484375 32.09765625 19.7890625 32.15234375 C13.27944552 31.66225802 13.27944552 31.66225802 10.15234375 28.53515625 C9.67796875 27.73078125 9.20359375 26.92640625 8.71484375 26.09765625 C8.05484375 28.07765625 7.39484375 30.05765625 6.71484375 32.09765625 C5.23577483 32.12454841 3.75656892 32.14400246 2.27734375 32.16015625 C1.45363281 32.17175781 0.62992187 32.18335938 -0.21875 32.1953125 C-2.28515625 32.09765625 -2.28515625 32.09765625 -3.28515625 31.09765625 C-3.38528026 28.89114969 -3.41596805 26.68143239 -3.41796875 24.47265625 C-3.41892548 23.81056152 -3.4198822 23.1484668 -3.42086792 22.46630859 C-3.42154951 21.06412664 -3.41969667 19.66194155 -3.41552734 18.25976562 C-3.41017871 16.10669912 -3.41547295 13.95384123 -3.421875 11.80078125 C-3.42121421 10.44140579 -3.41993304 9.08203045 -3.41796875 7.72265625 C-3.41684082 6.47742188 -3.41571289 5.2321875 -3.41455078 3.94921875 C-3.24163432 0.13853138 -3.24163432 0.13853138 0 0 Z " fill="#6EB1F1" transform="translate(279.28515625,198.90234375)"/>
<path d="M0 0 C3.3 0 6.6 0 10 0 C10 6.27 10 12.54 10 19 C7 20 7 20 4 20 C3.67 19.34 3.34 18.68 3 18 C2.01 17.67 1.02 17.34 0 17 C0 11.39 0 5.78 0 0 Z " fill="#4197F1" transform="translate(330,207)"/>
<path d="M0 0 C2.31 0 4.62 0 7 0 C7.1567564 7.71589817 6.67453101 15.31516461 6 23 C4.02 23.66 2.04 24.32 0 25 C-1 24 -1 24 -1.0625 21.4375 C-1.041875 20.633125 -1.02125 19.82875 -1 19 C-2.98 19.33 -4.96 19.66 -7 20 C-6.67 18.68 -6.34 17.36 -6 16 C-4.68 16 -3.36 16 -2 16 C-0.89485234 12.68455701 -0.67892369 9.79589889 -0.4375 6.3125 C-0.35371094 5.13300781 -0.26992188 3.95351562 -0.18359375 2.73828125 C-0.12300781 1.83464844 -0.06242187 0.93101562 0 0 Z " fill="#3393F9" transform="translate(347,209)"/>
<path d="M0 0 C1.65 0 3.3 0 5 0 C-1.9581615 10.28597787 -12.80814207 12.85159393 -24.28800964 15.53477478 C-27.4343238 16.07450557 -30.43359166 16.16259109 -33.6262207 16.20532227 C-34.59291939 16.22017166 -34.59291939 16.22017166 -35.57914734 16.23532104 C-37.69465549 16.26673387 -39.81018605 16.29161279 -41.92578125 16.31640625 C-43.39837708 16.33699328 -44.87096724 16.3579902 -46.34355164 16.37937927 C-50.20845933 16.43441943 -54.07341874 16.48390786 -57.93841553 16.53222656 C-61.88672457 16.58257392 -65.83495903 16.63819072 -69.78320312 16.69335938 C-77.52207215 16.80071989 -85.26100345 16.90221338 -93 17 C-93 16.34 -93 15.68 -93 15 C-92.3464856 14.99191315 -91.69297119 14.98382629 -91.01965332 14.97549438 C-84.13971412 14.88858879 -77.26003509 14.78906221 -70.38037109 14.68261719 C-67.82214776 14.64463174 -65.26387653 14.6097294 -62.70556641 14.578125 C-40.16001545 16.14660742 -40.16001545 16.14660742 -20 10 C-16.375 10.375 -16.375 10.375 -13 11 C-13 10.01 -13 9.02 -13 8 C-11.72125 7.7525 -10.4425 7.505 -9.125 7.25 C-5.73252682 6.48009414 -5.73252682 6.48009414 -3.5 3.875 C-3.335 3.25625 -3.17 2.6375 -3 2 C-2.01 2 -1.02 2 0 2 C0 1.34 0 0.68 0 0 Z " fill="#5EAEE6" transform="translate(183,208)"/>
<path d="M0 0 C3.63 0 7.26 0 11 0 C11 10.56 11 21.12 11 32 C7.7 32 4.4 32 1 32 C0 31 0 31 -0.11352539 28.04077148 C-0.10828857 26.74727783 -0.10305176 25.45378418 -0.09765625 24.12109375 C-0.0962413 23.4344313 -0.09482635 22.74776886 -0.09336853 22.04029846 C-0.08775479 19.83932199 -0.07520007 17.63844591 -0.0625 15.4375 C-0.05748676 13.94856917 -0.05292355 12.45963676 -0.04882812 10.97070312 C-0.03778093 7.31376925 -0.02050713 3.65689442 0 0 Z M2 2 C2 11.24 2 20.48 2 30 C4.31 30 6.62 30 9 30 C9 20.76 9 11.52 9 2 C6.69 2 4.38 2 2 2 Z " fill="#5E9DDE" transform="translate(258,199)"/>
<path d="M0 0 C1.17975917 3.69870443 0.54353128 5.31101598 -1.1015625 8.8125 C-5.06475015 18.46200037 -6.16291142 28.88600062 -6.09765625 39.21484375 C-6.0962413 40.07058487 -6.09482635 40.92632599 -6.09336853 41.80799866 C-6.0878099 44.51786931 -6.07526525 47.22765468 -6.0625 49.9375 C-6.05747965 51.78450401 -6.05291768 53.63150932 -6.04882812 55.47851562 C-6.03785405 59.98570951 -6.0206183 64.49284034 -6 69 C-3.69 69 -1.38 69 1 69 C1 69.33 1 69.66 1 70 C-0.47906892 70.02689216 -1.95827483 70.04634621 -3.4375 70.0625 C-4.67306641 70.07990234 -4.67306641 70.07990234 -5.93359375 70.09765625 C-8 70 -8 70 -9 69 C-9.12629223 66.4479402 -9.18873178 63.92461045 -9.203125 61.37109375 C-9.20882507 60.58920181 -9.21452515 59.80730988 -9.22039795 59.00172424 C-9.22987674 57.33295043 -9.23639328 55.66415765 -9.24023438 53.99536133 C-9.24976215 51.49979975 -9.28067712 49.00512713 -9.3125 46.50976562 C-9.40479172 32.84292092 -8.10824951 19.76210251 -2.8125 7 C-2.40354492 5.96359375 -2.40354492 5.96359375 -1.98632812 4.90625 C-1.33695709 3.26573369 -0.67058 1.63196169 0 0 Z " fill="#34CBE2" transform="translate(59,249)"/>
<path d="M0 0 C0.66 0 1.32 0 2 0 C2 9.57 2 19.14 2 29 C4.31 29 6.62 29 9 29 C9.33 26.69 9.66 24.38 10 22 C11.875 22.1875 11.875 22.1875 14 23 C15.25 25.5625 15.25 25.5625 16 28 C18.64 28.33 21.28 28.66 24 29 C23.67 27.02 23.34 25.04 23 23 C23.99 23 24.98 23 26 23 C26.04241723 25.33294775 26.04092937 27.66702567 26 30 C25 31 25 31 23.07421875 31.0546875 C16.56460177 30.56460177 16.56460177 30.56460177 13.4375 27.4375 C12.963125 26.633125 12.48875 25.82875 12 25 C11.34 26.98 10.68 28.96 10 31 C8.52093108 31.02689216 7.04172517 31.04634621 5.5625 31.0625 C4.32693359 31.07990234 4.32693359 31.07990234 3.06640625 31.09765625 C1 31 1 31 0 30 C-0.08783542 27.78144736 -0.10694609 25.56011504 -0.09765625 23.33984375 C-0.0962413 22.67537735 -0.09482635 22.01091095 -0.09336853 21.3263092 C-0.08775518 19.19666101 -0.07520054 17.06711661 -0.0625 14.9375 C-0.05748671 13.49674631 -0.05292351 12.05599097 -0.04882812 10.61523438 C-0.03778145 7.07678898 -0.02050792 3.53840461 0 0 Z " fill="#74ABE3" transform="translate(276,200)"/>
<path d="M0 0 C25.02209126 -0.10864635 49.9980103 -0.12516435 75 1 C75.1003477 6.22435233 74.60191823 10.09412542 73 15 C72.67 15 72.34 15 72 15 C72 10.71 72 6.42 72 2 C63.07260109 1.97740691 54.14522117 1.95906049 45.21780014 1.94818783 C41.07243538 1.94296949 36.9270912 1.93589083 32.78173828 1.92456055 C28.78117928 1.91369446 24.78064007 1.90771525 20.78006744 1.90512276 C19.25385476 1.90327523 17.72764316 1.8996675 16.2014389 1.89426994 C14.06363077 1.88701015 11.92590441 1.88601115 9.78808594 1.88647461 C8.5711908 1.884254 7.35429565 1.88203339 6.1005249 1.87974548 C3.52803333 1.97952012 1.44095129 2.23645225 -1 3 C-0.67 2.01 -0.34 1.02 0 0 Z " fill="#21C6F5" transform="translate(94,231)"/>
<path d="M0 0 C3.63 0 7.26 0 11 0 C11 0.66 11 1.32 11 2 C12.98 1.34 14.96 0.68 17 0 C18.4783226 2.95664519 18.06032783 5.74229737 18 9 C16.02 9.66 14.04 10.32 12 11 C11.93941406 11.85464844 11.87882812 12.70929688 11.81640625 13.58984375 C11.73261719 14.69457031 11.64882813 15.79929688 11.5625 16.9375 C11.48128906 18.03964844 11.40007812 19.14179688 11.31640625 20.27734375 C11 23 11 23 10 24 C8.50261876 24.0979057 7.00057108 24.12974864 5.5 24.125 C4.6853125 24.12757813 3.870625 24.13015625 3.03125 24.1328125 C1 24 1 24 0 23 C-0.08713831 21.29227642 -0.10700007 19.58101351 -0.09765625 17.87109375 C-0.09443359 16.83662109 -0.09121094 15.80214844 -0.08789062 14.73632812 C-0.07951172 13.64771484 -0.07113281 12.55910156 -0.0625 11.4375 C-0.05798828 10.34501953 -0.05347656 9.25253906 -0.04882812 8.12695312 C-0.0369984 5.41794568 -0.01906231 2.7089662 0 0 Z M1 1 C0.9730499 3.93756119 0.95318526 6.87487555 0.9375 9.8125 C0.92912109 10.64587891 0.92074219 11.47925781 0.91210938 12.33789062 C0.90888672 13.14033203 0.90566406 13.94277344 0.90234375 14.76953125 C0.89710693 15.50792236 0.89187012 16.24631348 0.88647461 17.00708008 C0.92476787 19.21057409 0.92476787 19.21057409 2 22 C4.64 22 7.28 22 10 22 C10.33 17.38 10.66 12.76 11 8 C12.65 8 14.3 8 16 8 C16 6.35 16 4.7 16 3 C15.67 3.66 15.34 4.32 15 5 C12.03 4.505 12.03 4.505 9 4 C9.33 3.01 9.66 2.02 10 1 C7.03 1 4.06 1 1 1 Z " fill="#82B2E1" transform="translate(307,207)"/>
<path d="M0 0 C3.5 0.125 3.5 0.125 4.5 1.125 C4.66407956 5.96534716 4.45348275 10.35758627 3.5 15.125 C1.50045254 15.16754356 -0.50041636 15.16580783 -2.5 15.125 C-4.37565835 13.24934165 -3.93313246 10.1466877 -4.125 7.625 C-4.22039062 6.4390625 -4.31578125 5.253125 -4.4140625 4.03125 C-4.44242187 3.0721875 -4.47078125 2.113125 -4.5 1.125 C-3.5 0.125 -3.5 0.125 0 0 Z " fill="#619FE7" transform="translate(365.5,195.875)"/>
<path d="M0 0 C1.32 0 2.64 0 4 0 C5.75 2 5.75 2 7 4 C7.66 2.68 8.32 1.36 9 0 C10.32 0 11.64 0 13 0 C13 3.96 13 7.92 13 12 C11.68 12.33 10.36 12.66 9 13 C9.33 11.35 9.66 9.7 10 8 C9.34 8 8.68 8 8 8 C8 9.32 8 10.64 8 12 C7.01 11.67 6.02 11.34 5 11 C4.67 11.66 4.34 12.32 4 13 C2.68 12.34 1.36 11.68 0 11 C0 7.37 0 3.74 0 0 Z " fill="#7994B7" transform="translate(332,268)"/>
<path d="M0 0 C1.32 0.66 2.64 1.32 4 2 C3.125 7.875 3.125 7.875 2 9 C1.89917236 11.43660446 1.86027397 13.84424701 1.8671875 16.28125 C1.86623077 17.00993286 1.86527405 17.73861572 1.86428833 18.48937988 C1.86360665 20.0327971 1.86546012 21.57621717 1.86962891 23.11962891 C1.87497738 25.489974 1.86968358 27.86012959 1.86328125 30.23046875 C1.86394203 31.72656292 1.8652232 33.22265697 1.8671875 34.71875 C1.86516327 35.43228638 1.86313904 36.14582275 1.86105347 36.88098145 C1.58351349 40.22486429 1.58351349 40.22486429 3 43 C3.66 42.34 4.32 41.68 5 41 C5.33 42.65 5.66 44.3 6 46 C5.01 46.495 5.01 46.495 4 47 C3.67 47.99 3.34 48.98 3 50 C1 49 1 49 0 46 C-0.98928942 37.24295662 -1.10052254 28.42872745 -1.125 19.625 C-1.12959229 18.71065186 -1.13418457 17.79630371 -1.13891602 16.85424805 C-1.12599627 11.15974019 -0.72479214 5.64877683 0 0 Z " fill="#61CDE4" transform="translate(48,211)"/>
<path d="M0 0 C1 3 1 3 0.109375 5.33984375 C-0.56351563 6.62568359 -0.56351563 6.62568359 -1.25 7.9375 C-1.68828125 8.79214844 -2.1265625 9.64679688 -2.578125 10.52734375 C-3.91751382 12.85655563 -5.24405626 14.96555981 -7 17 C-7.66 17 -8.32 17 -9 17 C-9 17.66 -9 18.32 -9 19 C-13.95660865 23.9701144 -19.13920202 26.07887435 -26 27 C-25.34 26.67 -24.68 26.34 -24 26 C-24 25.34 -24 24.68 -24 24 C-23.05125 23.7525 -22.1025 23.505 -21.125 23.25 C-17.91306809 22.3142923 -17.91306809 22.3142923 -16.625 19.875 C-16.41875 19.25625 -16.2125 18.6375 -16 18 C-16.66 17.34 -17.32 16.68 -18 16 C-14.35206816 14.72746564 -10.8063457 13.67170806 -7 13 C-6.896875 12.360625 -6.79375 11.72125 -6.6875 11.0625 C-6.3471875 10.0415625 -6.3471875 10.0415625 -6 9 C-5.01 8.67 -4.02 8.34 -3 8 C-2.87625 7.236875 -2.7525 6.47375 -2.625 5.6875 C-2 3 -2 3 0 0 Z " fill="#3FC9F0" transform="translate(86,291)"/>
<path d="M0 0 C0.99 0 1.98 0 3 0 C4.6875 2 4.6875 2 6 4 C6.66 2.68 7.32 1.36 8 0 C9.32 0 10.64 0 12 0 C12 3.96 12 7.92 12 12 C8.37673261 13.2077558 7.35853631 12.54311128 4 11 C3.67 11.66 3.34 12.32 3 13 C2.01 12.67 1.02 12.34 0 12 C0 8 0 4 0 0 Z M7 7 C8 11 8 11 8 11 Z " fill="#6C87B2" transform="translate(316,268)"/>
<path d="M0 0 C0.99 0.33 1.98 0.66 3 1 C2.67 2.32 2.34 3.64 2 5 C2.99 5 3.98 5 5 5 C4.67 3.68 4.34 2.36 4 1 C4.99 0.67 5.98 0.34 7 0 C9 2 9 2 9.1953125 4.6015625 C9.17210937 5.59929687 9.14890625 6.59703125 9.125 7.625 C9.10695313 8.62789063 9.08890625 9.63078125 9.0703125 10.6640625 C9.03550781 11.82035156 9.03550781 11.82035156 9 13 C7.35 13 5.7 13 4 13 C4.33 11.35 4.66 9.7 5 8 C4.01 8 3.02 8 2 8 C2.33 9.65 2.66 11.3 3 13 C1.35 12.67 -0.3 12.34 -2 12 C-2 8.37 -2 4.74 -2 1 C-1.34 0.67 -0.68 0.34 0 0 Z " fill="#A3B7CF" transform="translate(271,248)"/>
<path d="M0 0 C0.99 0 1.98 0 3 0 C4.6875 2.5 4.6875 2.5 6 5 C6 3.35 6 1.7 6 0 C7.32 0 8.64 0 10 0 C9.67 4.29 9.34 8.58 9 13 C6 12 6 12 4 9 C4 10.32 4 11.64 4 13 C2.68 13 1.36 13 0 13 C-0.19397476 11.02145742 -0.38001321 9.0421352 -0.5625 7.0625 C-0.66691406 5.96035156 -0.77132813 4.85820312 -0.87890625 3.72265625 C-0.91886719 2.82417969 -0.95882813 1.92570313 -1 1 C-0.67 0.67 -0.34 0.34 0 0 Z " fill="#95AECE" transform="translate(285,248)"/>
<path d="M0 0 C0.33 0.99 0.66 1.98 1 3 C0.34 3 -0.32 3 -1 3 C-1.0825 3.886875 -1.165 4.77375 -1.25 5.6875 C-2.0934086 9.41255464 -3.45552764 11.20928838 -6 14 C-5.67 14.66 -5.34 15.32 -5 16 C-5.28241883 18.3400417 -5.61250787 20.67504723 -6 23 C-4.68 22.67 -3.36 22.34 -2 22 C-1.34 23.32 -0.68 24.64 0 26 C-2.95664519 27.4783226 -5.74229737 27.06032783 -9 27 C-9.90216608 17.57737654 -8.12706198 10.97127154 -3 3 C-1.30078125 1.16015625 -1.30078125 1.16015625 0 0 Z " fill="#18C5EE" transform="translate(62,291)"/>
<path d="M0 0 C2.31 0.33 4.62 0.66 7 1 C6.6875 3.375 6.6875 3.375 6 6 C2.57905758 8.28062828 1.31812778 8.21925007 -2.6875 8.125 C-4.17830078 8.09792969 -4.17830078 8.09792969 -5.69921875 8.0703125 C-6.45847656 8.04710937 -7.21773438 8.02390625 -8 8 C-8 5.69 -8 3.38 -8 1 C-5.36 1.33 -2.72 1.66 0 2 C0 1.34 0 0.68 0 0 Z " fill="#3590EE" transform="translate(345,232)"/>
<path d="M0 0 C1.875 0.25 1.875 0.25 4 1 C5.25 3.0625 5.25 3.0625 6 5 C5.67 3.68 5.34 2.36 5 1 C6.65 0.67 8.3 0.34 10 0 C10 2.62834278 9.80210238 5.08186701 9.5 7.6875 C9.4071875 8.49574219 9.314375 9.30398438 9.21875 10.13671875 C9.1465625 10.75160156 9.074375 11.36648438 9 12 C8.01 12 7.02 12 6 12 C5.34 11.01 4.68 10.02 4 9 C3.67 10.32 3.34 11.64 3 13 C1.68 12.34 0.36 11.68 -1 11 C-0.34 11 0.32 11 1 11 C0.835 9.741875 0.67 8.48375 0.5 7.1875 C0.17841759 4.73543415 0 2.48349306 0 0 Z " fill="#7E96BF" transform="translate(359,268)"/>
<path d="M0 0 C7.26 0 14.52 0 22 0 C22 2.64 22 5.28 22 8 C18.04 8 14.08 8 10 8 C10 7.67 10 7.34 10 7 C13.3 7 16.6 7 20 7 C20 5.35 20 3.7 20 2 C13.73 2 7.46 2 1 2 C1 9.59 1 17.18 1 25 C0.67 25 0.34 25 0 25 C0 16.75 0 8.5 0 0 Z " fill="#5C99D6" transform="translate(230,199)"/>
<path d="M0 0 C1.98 0 3.96 0 6 0 C8 2 8 2 8.1953125 4.1640625 C8.17210937 4.97617187 8.14890625 5.78828125 8.125 6.625 C8.10695313 7.44226563 8.08890625 8.25953125 8.0703125 9.1015625 C8.03550781 10.04128906 8.03550781 10.04128906 8 11 C8.99 11.33 9.98 11.66 11 12 C9.1875 12.625 9.1875 12.625 7 13 C6.01 12.34 5.02 11.68 4 11 C3.67 11.66 3.34 12.32 3 13 C2.01 12.67 1.02 12.34 0 12 C0 8.04 0 4.08 0 0 Z M3 3 C3 3.99 3 4.98 3 6 C3.66 6 4.32 6 5 6 C5 5.01 5 4.02 5 3 C4.34 3 3.68 3 3 3 Z " fill="#6C88AE" transform="translate(287,268)"/>
<path d="M0 0 C1.23556641 0.01740234 1.23556641 0.01740234 2.49609375 0.03515625 C3.32238281 0.04417969 4.14867188 0.05320313 5 0.0625 C5.63808594 0.07410156 6.27617188 0.08570313 6.93359375 0.09765625 C6.93359375 0.42765625 6.93359375 0.75765625 6.93359375 1.09765625 C5.81984375 1.32453125 4.70609375 1.55140625 3.55859375 1.78515625 C-8.03865125 4.76613824 -15.80865868 11.76025195 -24.06640625 20.09765625 C-24.4365862 14.54495702 -24.4365862 14.54495702 -22.56640625 12.28515625 C-22.07140625 11.89328125 -21.57640625 11.50140625 -21.06640625 11.09765625 C-21.06640625 10.76765625 -21.06640625 10.43765625 -21.06640625 10.09765625 C-19.41640625 10.09765625 -17.76640625 10.09765625 -16.06640625 10.09765625 C-16.06640625 9.10765625 -16.06640625 8.11765625 -16.06640625 7.09765625 C-15.07640625 7.09765625 -14.08640625 7.09765625 -13.06640625 7.09765625 C-12.73640625 5.77765625 -12.40640625 4.45765625 -12.06640625 3.09765625 C-11.10927734 2.89849609 -11.10927734 2.89849609 -10.1328125 2.6953125 C-9.30652344 2.51871094 -8.48023437 2.34210938 -7.62890625 2.16015625 C-6.39333984 1.89912109 -6.39333984 1.89912109 -5.1328125 1.6328125 C-2.78442822 1.0246298 -2.4256184 0.11463225 0 0 Z " fill="#54CEEA" transform="translate(83.06640625,224.90234375)"/>
<path d="M0 0 C3.16115776 1.36983503 3.9927092 1.9890638 6 5 C5.70661408 8.81401691 4.59624722 11.20404145 2 14 C-2.80348505 15.60116168 -8.1648862 15.6117046 -13 14 C-13.125 8.25 -13.125 8.25 -12 6 C-9.36 6 -6.72 6 -4 6 C-3.34 7.32 -2.68 8.64 -2 10 C-3.32 10 -4.64 10 -6 10 C-6 9.34 -6 8.68 -6 8 C-7.65 8 -9.3 8 -11 8 C-11 9.65 -11 11.3 -11 13 C-9.39482903 12.91266424 -7.79078338 12.80447776 -6.1875 12.6875 C-5.29417969 12.62949219 -4.40085937 12.57148438 -3.48046875 12.51171875 C-0.65475171 11.92877555 0.12505566 11.10016288 2 9 C2.66 9 3.32 9 4 9 C3.67 7.02 3.34 5.04 3 3 C2.34 3 1.68 3 1 3 C0.67 2.01 0.34 1.02 0 0 Z " fill="#7BB2E3" transform="translate(388,216)"/>
<path d="M0 0 C1.28619743 3.8585923 0.55068794 6.10656285 -0.3125 10.0625 C-0.57675781 11.31160156 -0.84101562 12.56070313 -1.11328125 13.84765625 C-2 17 -2 17 -4 19 C-4.69748583 20.31747324 -5.36959957 21.64914193 -6 23 C-6.99 23 -7.98 23 -9 23 C-7.94257116 14.69839447 -6.12067645 6.12067645 0 0 Z " fill="#49D0F1" transform="translate(58,187)"/>
<path d="M0 0 C0 1.65 0 3.3 0 5 C-0.66 5 -1.32 5 -2 5 C-2 4.34 -2 3.68 -2 3 C-3.32 3 -4.64 3 -6 3 C-6 5.31 -6 7.62 -6 10 C-5.34 10 -4.68 10 -4 10 C-4 8.68 -4 7.36 -4 6 C-2.68 6 -1.36 6 0 6 C0 7.98 0 9.96 0 12 C-2.75 12.75 -2.75 12.75 -6 13 C-8.4375 11.5 -8.4375 11.5 -10 9 C-9.9375 5.375 -9.9375 5.375 -9 2 C-5.5647952 -0.29013653 -4.014669 -0.17842973 0 0 Z " fill="#96A8C3" transform="translate(282,268)"/>
<path d="M0 0 C5.75 -0.125 5.75 -0.125 8 1 C7.95875 2.0725 7.9175 3.145 7.875 4.25 C7.9885825 7.65747485 8.21273364 9.20739631 10 12 C8.68 12 7.36 12 6 12 C3.99598989 12.30830925 1.99488234 12.63729412 0 13 C0 8.66666667 0 4.33333333 0 0 Z M3 3 C3 3.66 3 4.32 3 5 C3.99 4.67 4.98 4.34 6 4 C5.01 3.67 4.02 3.34 3 3 Z M3 7 C3.33 8.32 3.66 9.64 4 11 C4.33 10.34 4.66 9.68 5 9 C4.34 8.34 3.68 7.68 3 7 Z " fill="#6587BB" transform="translate(244,268)"/>
<path d="M0 0 C0.99 0 1.98 0 3 0 C1.33980929 7.37862537 -3.69487484 12.70889689 -9.875 16.8125 C-14.37336838 19.39424839 -19.98323879 22.57214437 -25.265625 21.5703125 C-25.83796875 21.38210938 -26.4103125 21.19390625 -27 21 C-23.13606626 18.42404417 -19.17551196 17.4007522 -14.625 16.5625 C-14.08875 16.376875 -13.5525 16.19125 -13 16 C-12.67 15.01 -12.34 14.02 -12 13 C-11.030625 12.525625 -10.06125 12.05125 -9.0625 11.5625 C-5.89788363 9.94789981 -5.12529972 9.26336918 -4 6 C-3.34 6 -2.68 6 -2 6 C-1.855625 5.38125 -1.71125 4.7625 -1.5625 4.125 C-1 2 -1 2 0 0 Z " fill="#5BD7EA" transform="translate(165,246)"/>
<path d="M0 0 C0 1.65 0 3.3 0 5 C-0.66 5 -1.32 5 -2 5 C-2.66 4.34 -3.32 3.68 -4 3 C-4.66 3 -5.32 3 -6 3 C-5.74438677 5.3431213 -5.40729228 7.67843403 -5 10 C-4.34 10.33 -3.68 10.66 -3 11 C-3.66 9.68 -4.32 8.36 -5 7 C-3.35 6.67 -1.7 6.34 0 6 C0 7.98 0 9.96 0 12 C-2.75 12.75 -2.75 12.75 -6 13 C-8.4375 11.5 -8.4375 11.5 -10 9 C-9.9375 5.375 -9.9375 5.375 -9 2 C-5.5647952 -0.29013653 -4.014669 -0.17842973 0 0 Z " fill="#95A5BB" transform="translate(383,268)"/>
<path d="M0 0 C1.52491998 3.04983996 1.23562548 5.6423369 1 9 C-0.125 11 -0.125 11 -2 12 C-5.1875 11.6875 -5.1875 11.6875 -8 11 C-10.19909502 5.74660633 -10.19909502 5.74660633 -9.25 2.1875 C-6.8640154 -1.98797305 -4.27015484 -0.99939794 0 0 Z M-6 2 C-6.93065133 4.60582371 -7.14917407 5.64198224 -6.0625 8.25 C-5.711875 8.8275 -5.36125 9.405 -5 10 C-4.01 9.67 -3.02 9.34 -2 9 C-2 6.69 -2 4.38 -2 2 C-3.32 2 -4.64 2 -6 2 Z " fill="#8799BE" transform="translate(267,269)"/>
<path d="M0 0 C2.4375 0.8125 2.4375 0.8125 4.4375 3.8125 C4.8125 6.8125 4.8125 6.8125 4.4375 9.8125 C2.75 11.75 2.75 11.75 0.4375 12.8125 C-3.97275641 12.40224359 -3.97275641 12.40224359 -5.5625 10.8125 C-5.765625 8.81640625 -5.765625 8.81640625 -5.8125 6.375 C-5.83828125 5.57191406 -5.8640625 4.76882812 -5.890625 3.94140625 C-5.78234375 3.23886719 -5.6740625 2.53632813 -5.5625 1.8125 C-2.5625 -0.1875 -2.5625 -0.1875 0 0 Z M-1.5625 1.8125 C-2.76811184 2.79517859 -2.76811184 2.79517859 -2.66015625 4.66015625 C-2.64855469 5.39105469 -2.63695312 6.12195313 -2.625 6.875 C-2.604375 8.174375 -2.58375 9.47375 -2.5625 10.8125 C-1.2425 10.1525 0.0775 9.4925 1.4375 8.8125 C1.68780977 6.39630177 1.68780977 6.39630177 1.4375 3.8125 C0.4475 3.1525 -0.5425 2.4925 -1.5625 1.8125 Z " fill="#99B2CE" transform="translate(305.5625,248.1875)"/>
<path d="M0 0 C2.4375 0.75 2.4375 0.75 4.4375 2.75 C4.98532609 8.77608696 4.98532609 8.77608696 3.3125 11.75 C1.4375 12.75 1.4375 12.75 -1.625 12.6875 C-4.5625 11.75 -4.5625 11.75 -6 10.0625 C-6.75474007 6.9596797 -6.42727202 4.80996253 -5.5625 1.75 C-2.5625 -0.25 -2.5625 -0.25 0 0 Z M-1.5625 1.75 C-3.89641203 4.53114056 -3.89641203 4.53114056 -3.1875 7.4375 C-2.98125 8.200625 -2.775 8.96375 -2.5625 9.75 C-1.2425 9.75 0.0775 9.75 1.4375 9.75 C1.4375 7.44 1.4375 5.13 1.4375 2.75 C0.4475 2.42 -0.5425 2.09 -1.5625 1.75 Z " fill="#8DA9CB" transform="translate(332.5625,248.25)"/>
<path d="M0 0 C1.4540625 0.0309375 1.4540625 0.0309375 2.9375 0.0625 C3.2675 1.3825 3.5975 2.7025 3.9375 4.0625 C1.4625 3.0725 1.4625 3.0725 -1.0625 2.0625 C-1.0625 3.0525 -1.0625 4.0425 -1.0625 5.0625 C0.2575 5.0625 1.5775 5.0625 2.9375 5.0625 C3.2675 7.7025 3.5975 10.3425 3.9375 13.0625 C1.2975 13.0625 -1.3425 13.0625 -4.0625 13.0625 C-4.08936553 11.08340602 -4.10883375 9.10421029 -4.125 7.125 C-4.13660156 6.02285156 -4.14820313 4.92070312 -4.16015625 3.78515625 C-4.02168594 -0.07539595 -3.9087853 0.07977113 0 0 Z M-1.0625 8.0625 C-1.0625 9.0525 -1.0625 10.0425 -1.0625 11.0625 C-0.0725 11.0625 0.9175 11.0625 1.9375 11.0625 C1.9375 10.0725 1.9375 9.0825 1.9375 8.0625 C0.9475 8.0625 -0.0425 8.0625 -1.0625 8.0625 Z " fill="#A4BED5" transform="translate(248.0625,247.9375)"/>
<path d="M0 0 C1.18460581 3.71389929 0.52122051 5.330783 -1.10546875 8.8515625 C-4.48541709 16.96934236 -5.48551469 25.70404702 -6.26586914 34.38818359 C-6.79316967 39.79316967 -6.79316967 39.79316967 -9 42 C-9.96571087 27.12089913 -5.57356331 13.56414113 0 0 Z " fill="#5ED7E9" transform="translate(59,249)"/>
<path d="M0 0 C0.33 0.66 0.66 1.32 1 2 C1.99 2.33 2.98 2.66 4 3 C4.33 3.66 4.66 4.32 5 5 C3.68 5 2.36 5 1 5 C0.67 6.32 0.34 7.64 0 9 C1.98 8.67 3.96 8.34 6 8 C5.67 9.98 5.34 11.96 5 14 C2.6568787 13.74438677 0.32156597 13.40729228 -2 13 C-2.33 12.34 -2.66 11.68 -3 11 C-3.99 10.67 -4.98 10.34 -6 10 C-6 9.34 -6 8.68 -6 8 C-6.66 8 -7.32 8 -8 8 C-8.33 6.68 -8.66 5.36 -9 4 C-8.01 4.33 -7.02 4.66 -6 5 C-6 5.66 -6 6.32 -6 7 C-4.35 6.67 -2.7 6.34 -1 6 C-0.67 4.02 -0.34 2.04 0 0 Z " fill="#5CA1EB" transform="translate(340,220)"/>
<path d="M0 0 C2.64 0 5.28 0 8 0 C8 3.96 8 7.92 8 12 C7.67 12 7.34 12 7 12 C7 8.7 7 5.4 7 2 C6.01 2 5.02 2 4 2 C4 4.64 4 7.28 4 10 C3.34 9.67 2.68 9.34 2 9 C1.67 15.6 1.34 22.2 1 29 C0.67 29 0.34 29 0 29 C0 19.43 0 9.86 0 0 Z " fill="#3B92ED" transform="translate(278,200)"/>
<path d="M0 0 C0.33 0.99 0.66 1.98 1 3 C0.67 3.66 0.34 4.32 0 5 C-0.66 5 -1.32 5 -2 5 C-2 4.01 -2 3.02 -2 2 C-2.99 2.66 -3.98 3.32 -5 4 C-5.25015873 7.58357241 -5.25015873 7.58357241 -5 11 C-4.34 10.34 -3.68 9.68 -3 9 C-3 8.01 -3 7.02 -3 6 C-1.68 6.66 -0.36 7.32 1 8 C0.67 9.32 0.34 10.64 0 12 C-1.98 12.33 -3.96 12.66 -6 13 C-7.5625 11.4375 -7.5625 11.4375 -9 9 C-8.875 5.375 -8.875 5.375 -8 2 C-4.77208445 -0.1519437 -3.71599191 -0.20086443 0 0 Z " fill="#8199C0" transform="translate(350,248)"/>
<path d="M0 0 C0.12375 0.639375 0.2475 1.27875 0.375 1.9375 C0.58125 2.618125 0.7875 3.29875 1 4 C1.66 4.33 2.32 4.66 3 5 C3 6.98 3 8.96 3 11 C3.33 10.34 3.66 9.68 4 9 C4.66 9 5.32 9 6 9 C6.33 8.34 6.66 7.68 7 7 C7.99 7.33 8.98 7.66 10 8 C8.68 10.64 7.36 13.28 6 16 C5.34 16 4.68 16 4 16 C3.34 16.66 2.68 17.32 2 18 C0 16 0 16 -0.1953125 12.3046875 C-0.182009 10.82799892 -0.15814835 9.35137642 -0.125 7.875 C-0.11146484 6.74384766 -0.11146484 6.74384766 -0.09765625 5.58984375 C-0.0740687 3.72642746 -0.03819719 1.86317407 0 0 Z " fill="#2DCBF0" transform="translate(49,237)"/>
<path d="M0 0 C5.75 -0.125 5.75 -0.125 8 1 C8 2.98 8 4.96 8 7 C6.68 7.33 5.36 7.66 4 8 C4.33 9.32 4.66 10.64 5 12 C3.68 12.33 2.36 12.66 1 13 C-0.32229189 10.35541621 -0.09677194 8.32238699 -0.0625 5.375 C-0.05347656 4.37210937 -0.04445312 3.36921875 -0.03515625 2.3359375 C-0.02355469 1.56507813 -0.01195312 0.79421875 0 0 Z M4 3 C4.33 3.99 4.66 4.98 5 6 C5.33 5.01 5.66 4.02 6 3 C5.34 3 4.68 3 4 3 Z " fill="#7791BD" transform="translate(231,268)"/>
<path d="M0 0 C0 6.27 0 12.54 0 19 C-0.99 19.33 -1.98 19.66 -3 20 C-2.67 14.72 -2.34 9.44 -2 4 C-5.0745356 4.7763932 -5.0745356 4.7763932 -7 7 C-8.32 7 -9.64 7 -11 7 C-11 6.01 -11 5.02 -11 4 C-9.73308493 3.32591692 -8.46129251 2.66099503 -7.1875 2 C-6.47980469 1.62875 -5.77210937 1.2575 -5.04296875 0.875 C-3 0 -3 0 0 0 Z " fill="#209BF2" transform="translate(88,272)"/>
<path d="M0 0 C2.64 0 5.28 0 8 0 C8.33 1.32 8.66 2.64 9 4 C8.34 4 7.68 4 7 4 C6.67 6.97 6.34 9.94 6 13 C4.68 13 3.36 13 2 13 C1.875 5.25 1.875 5.25 3 3 C2.01 3.33 1.02 3.66 0 4 C0 2.68 0 1.36 0 0 Z " fill="#7EA1CA" transform="translate(231,248)"/>
<path d="M0 0 C0 0.66 0 1.32 0 2 C-2.64738916 3.4606285 -3.89448334 4 -7 4 C-7.33 4.66 -7.66 5.32 -8 6 C-9.77734375 6.4921875 -9.77734375 6.4921875 -11.9375 6.875 C-15.30230976 7.54769932 -15.30230976 7.54769932 -17.5 10.125 C-17.665 10.74375 -17.83 11.3625 -18 12 C-18.66 11.67 -19.32 11.34 -20 11 C-18.56323497 7.45034523 -16.88698102 5.92912058 -13.6875 3.875 C-12.92824219 3.37742188 -12.16898437 2.87984375 -11.38671875 2.3671875 C-4.40571979 -1.63174807 -4.40571979 -1.63174807 0 0 Z " fill="#36CAF2" transform="translate(79,176)"/>
<path d="M0 0 C0.7425 0.2475 1.485 0.495 2.25 0.75 C2.25 2.07 2.25 3.39 2.25 4.75 C1.59 4.75 0.93 4.75 0.25 4.75 C-0.41 4.09 -1.07 3.43 -1.75 2.75 C-3.16577477 3.93424326 -3.16577477 3.93424326 -2.8125 7.3125 C-2.791875 8.446875 -2.77125 9.58125 -2.75 10.75 C-1.1 10.42 0.55 10.09 2.25 9.75 C2.25 10.41 2.25 11.07 2.25 11.75 C-3.17465753 13.0760274 -3.17465753 13.0760274 -5.625 11.6875 C-7.27482402 8.84613641 -7.2113148 6.97920358 -6.75 3.75 C-4.61304198 0.66328286 -3.81689239 -0.34699022 0 0 Z " fill="#9FB2CF" transform="translate(262.75,248.25)"/>
<path d="M0 0 C0.66 0 1.32 0 2 0 C3.32 3.96 4.64 7.92 6 12 C5.01 12.33 4.02 12.66 3 13 C2.01 12.01 1.02 11.02 0 10 C-0.33 10.66 -0.66 11.32 -1 12 C-1.99 12 -2.98 12 -4 12 C-3.52309796 10.37433394 -3.04340334 8.74948689 -2.5625 7.125 C-2.29566406 6.22007812 -2.02882813 5.31515625 -1.75390625 4.3828125 C-1 2 -1 2 0 0 Z " fill="#798FB6" transform="translate(305,268)"/>
<path d="M0 0 C3 1 3 1 5 3 C5.33 2.01 5.66 1.02 6 0 C6.99 0.33 7.98 0.66 9 1 C8.690625 1.680625 8.38125 2.36125 8.0625 3.0625 C6.86629351 6.36965912 6.40994603 9.51545878 6 13 C4.68 13 3.36 13 2 13 C1.814375 11.4221875 1.814375 11.4221875 1.625 9.8125 C1.08859218 6.54041229 0.36119965 3.99463924 -1 1 C-0.67 0.67 -0.34 0.34 0 0 Z " fill="#8DA9C3" transform="translate(356,248)"/>
<path d="M0 0 C0.7734375 0.495 0.7734375 0.495 1.5625 1 C1.5625 2.65 1.5625 4.3 1.5625 6 C-0.7475 6.66 -3.0575 7.32 -5.4375 8 C-5.7675 7.34 -6.0975 6.68 -6.4375 6 C-4.4575 6 -2.4775 6 -0.4375 6 C-0.4375 4.68 -0.4375 3.36 -0.4375 2 C-4.0675 2 -7.6975 2 -11.4375 2 C-11.7675 2.99 -12.0975 3.98 -12.4375 5 C-13.0975 5 -13.7575 5 -14.4375 5 C-15.0975 6.32 -15.7575 7.64 -16.4375 9 C-15.82803254 3.5147929 -15.82803254 3.5147929 -14.0625 1.1875 C-9.95068744 -1.8172861 -4.60577872 -1.88955024 0 0 Z " fill="#81B3E2" transform="translate(390.4375,208)"/>
<path d="M0 0 C1.98 0.495 1.98 0.495 4 1 C3.67 4.3 3.34 7.6 3 11 C3.99 11 4.98 11 6 11 C6 10.01 6 9.02 6 8 C6.66 8 7.32 8 8 8 C7.67 9.65 7.34 11.3 7 13 C4.69 13 2.38 13 0 13 C-1.25069801 10.49860398 -1.13302467 8.72607309 -1.125 5.9375 C-1.12757813 5.03902344 -1.13015625 4.14054688 -1.1328125 3.21484375 C-1 1 -1 1 0 0 Z " fill="#7D94BB" transform="translate(315,248)"/>
<path d="M0 0 C3.36720387 1.39332574 4.9859524 2.9789286 7 6 C5.9024777 8.99324263 5.32317108 9.84610901 2.375 11.25 C1.59125 11.4975 0.8075 11.745 0 12 C0.66 13.65 1.32 15.3 2 17 C0.68 16.67 -0.64 16.34 -2 16 C-2 13.69 -2 11.38 -2 9 C-1.67 9.66 -1.34 10.32 -1 11 C-0.34 11 0.32 11 1 11 C1 10.34 1 9.68 1 9 C1.99 9 2.98 9 4 9 C3.34 7.02 2.68 5.04 2 3 C0.02 3.33 -1.96 3.66 -4 4 C-2.68 2.68 -1.36 1.36 0 0 Z " fill="#7DB1E7" transform="translate(296,205)"/>
<path d="M0 0 C10.23 0 20.46 0 31 0 C31 3.96 31 7.92 31 12 C30.01 12.99 29.02 13.98 28 15 C27.95745644 13.00045254 27.95919217 10.99958364 28 9 C28.33 8.67 28.66 8.34 29 8 C29.33 5.69 29.66 3.38 30 1 C20.1 1 10.2 1 0 1 C0 0.67 0 0.34 0 0 Z " fill="#3BC1E7" transform="translate(139,231)"/>
<path d="M0 0 C1 3 1 3 0.109375 5.33984375 C-0.33921875 6.19707031 -0.7878125 7.05429687 -1.25 7.9375 C-1.68828125 8.79214844 -2.1265625 9.64679688 -2.578125 10.52734375 C-3.91751382 12.85655563 -5.24405626 14.96555981 -7 17 C-7.66 17 -8.32 17 -9 17 C-9 17.66 -9 18.32 -9 19 C-9.99 19.33 -10.98 19.66 -12 20 C-11.67 18.68 -11.34 17.36 -11 16 C-10.34 16 -9.68 16 -9 16 C-9 15.34 -9 14.68 -9 14 C-8.34 14 -7.68 14 -7 14 C-6.67 12.35 -6.34 10.7 -6 9 C-5.01 8.67 -4.02 8.34 -3 8 C-2.87625 7.236875 -2.7525 6.47375 -2.625 5.6875 C-2 3 -2 3 0 0 Z " fill="#56C1E6" transform="translate(86,291)"/>
<path d="M0 0 C0.928125 0.33 1.85625 0.66 2.8125 1 C5.92029291 2.14967004 5.92029291 2.14967004 9 2 C11.1875 3 11.1875 3 13 4 C12.67 4.66 12.34 5.32 12 6 C11.443125 5.855625 10.88625 5.71125 10.3125 5.5625 C8.65689365 5.15978494 6.987637 4.8116534 5.3125 4.5 C3 4 3 4 2 3 C1.67 3.66 1.34 4.32 1 5 C2.65 5.33 4.3 5.66 6 6 C5.67 6.99 5.34 7.98 5 9 C2.5625 8.3125 2.5625 8.3125 0 7 C-0.875 4.5 -0.875 4.5 -1 2 C-0.67 1.34 -0.34 0.68 0 0 Z " fill="#4493E9" transform="translate(376,213)"/>
<path d="M0 0 C0.66 0.66 1.32 1.32 2 2 C1.67 2.66 1.34 3.32 1 4 C1.71027344 3.98839844 2.42054688 3.97679687 3.15234375 3.96484375 C4.07144531 3.95582031 4.99054688 3.94679687 5.9375 3.9375 C6.85402344 3.92589844 7.77054688 3.91429687 8.71484375 3.90234375 C11 4 11 4 12 5 C12.04080783 6.99958364 12.04254356 9.00045254 12 11 C8.37 11.33 4.74 11.66 1 12 C1 11.34 1 10.68 1 10 C5.455 9.505 5.455 9.505 10 9 C10 8.01 10 7.02 10 6 C9.04287109 6.01740234 9.04287109 6.01740234 8.06640625 6.03515625 C6.82697266 6.04869141 6.82697266 6.04869141 5.5625 6.0625 C4.32693359 6.07990234 4.32693359 6.07990234 3.06640625 6.09765625 C1 6 1 6 0 5 C-0.04063832 3.33382885 -0.042721 1.66611905 0 0 Z " fill="#66A7E3" transform="translate(239,208)"/>
<path d="M0 0 C1.32 0 2.64 0 4 0 C5.44977894 2.34112451 6.04314411 3.5796929 5.7578125 6.359375 C5.54898437 7.14828125 5.34015625 7.9371875 5.125 8.75 C4.92132813 9.54921875 4.71765625 10.3484375 4.5078125 11.171875 C4.34023438 11.77515625 4.17265625 12.3784375 4 13 C2.68 12.34 1.36 11.68 0 11 C0 7.37 0 3.74 0 0 Z " fill="#97AFC7" transform="translate(332,268)"/>
<path d="M0 0 C1.4783226 2.95664519 1.06032783 5.74229737 1 9 C-1.31 9.66 -3.62 10.32 -6 11 C-6 10.01 -6 9.02 -6 8 C-4.35 8 -2.7 8 -1 8 C-1.33 7.01 -1.66 6.02 -2 5 C-3.98 5 -5.96 5 -8 5 C-8.33 4.34 -8.66 3.68 -9 3 C-2.25 0 -2.25 0 0 0 Z " fill="#70A7E1" transform="translate(324,207)"/>
<path d="M0 0 C1.65 0 3.3 0 5 0 C5 3.96 5 7.92 5 12 C4.01 12.33 3.02 12.66 2 13 C0 11 0 11 -0.1953125 8.3984375 C-0.17210937 7.40070313 -0.14890625 6.40296875 -0.125 5.375 C-0.10695313 4.37210937 -0.08890625 3.36921875 -0.0703125 2.3359375 C-0.04710937 1.56507813 -0.02390625 0.79421875 0 0 Z " fill="#8B9CB9" transform="translate(349,268)"/>
<path d="M0 0 C0.33 0 0.66 0 1 0 C1 2.97 1 5.94 1 9 C1.66 9 2.32 9 3 9 C3 9.66 3 10.32 3 11 C1.35 11 -0.3 11 -2 11 C-1.67 9.35 -1.34 7.7 -1 6 C-1.99 6 -2.98 6 -4 6 C-4 7.32 -4 8.64 -4 10 C-4.66 10 -5.32 10 -6 10 C-6 7.03 -6 4.06 -6 1 C-5.67 1.99 -5.34 2.98 -5 4 C-3.35 4 -1.7 4 0 4 C0 2.68 0 1.36 0 0 Z " fill="#768FAF" transform="translate(277,250)"/>
<path d="M0 0 C0.33 0 0.66 0 1 0 C1.33 1.65 1.66 3.3 2 5 C2.66 4.67 3.32 4.34 4 4 C6.6723621 3.86584528 9.32250488 3.95681459 12 4 C12 3.34 12 2.68 12 2 C12.99 2.33 13.98 2.66 15 3 C13.6875 5 13.6875 5 11 7 C7.31144615 7.36089448 3.6948351 7.22933459 0 7 C0 4.69 0 2.38 0 0 Z " fill="#66A4E6" transform="translate(337,233)"/>
<path d="M0 0 C2 2 2 2 2.08203125 4.57421875 C1.55544284 10.65669644 0.8382413 15.57032098 -2 21 C-3.53617912 16.90352234 -2.69045256 13.21176063 -2 9 C-1.67 8.67 -1.34 8.34 -1 8 C-0.76924918 6.65252916 -0.58846937 5.29622435 -0.4375 3.9375 C-0.2209375 1.9884375 -0.2209375 1.9884375 0 0 Z " fill="#5A9DE1" transform="translate(199,175)"/>
<path d="M0 0 C0.33 0 0.66 0 1 0 C1.06058594 0.71027344 1.12117188 1.42054688 1.18359375 2.15234375 C1.26738281 3.07144531 1.35117187 3.99054688 1.4375 4.9375 C1.51871094 5.85402344 1.59992187 6.77054688 1.68359375 7.71484375 C1.76044976 9.96159732 1.76044976 9.96159732 3 11 C3.66 10.34 4.32 9.68 5 9 C5.33 10.65 5.66 12.3 6 14 C5.01 14.495 5.01 14.495 4 15 C3.67 15.99 3.34 16.98 3 18 C1 17 1 17 0 14 C-0.06970052 11.60509014 -0.08448003 9.20832309 -0.0625 6.8125 C-0.05347656 5.54019531 -0.04445312 4.26789063 -0.03515625 2.95703125 C-0.02355469 1.98121094 -0.01195312 1.00539062 0 0 Z " fill="#60CFE4" transform="translate(48,243)"/>
<path d="M0 0 C1.32 0 2.64 0 4 0 C3.67 4.29 3.34 8.58 3 13 C2.01 12.67 1.02 12.34 0 12 C-1.1875 9.4375 -1.1875 9.4375 -2 7 C-1.34 6.67 -0.68 6.34 0 6 C0 4.02 0 2.04 0 0 Z " fill="#7B99BB" transform="translate(291,248)"/>
<path d="M0 0 C0 3 0 3 -1.57421875 4.9375 C-8.61165049 11.80582524 -8.61165049 11.80582524 -13 14 C-10.27076097 7.54907138 -5.83503593 3.52816126 0 0 Z " fill="#19A6F2" transform="translate(76,277)"/>
<path d="M0 0 C0 1.65 0 3.3 0 5 C-0.66 5 -1.32 5 -2 5 C-2 4.34 -2 3.68 -2 3 C-3.32 3 -4.64 3 -6 3 C-6.33 5.31 -6.66 7.62 -7 10 C-8.57035335 7.50590939 -9.0274945 6.29556584 -8.75 3.3125 C-8.5025 2.549375 -8.255 1.78625 -8 1 C-5.29120665 -0.35439668 -2.99066732 -0.06501451 0 0 Z " fill="#7D99BC" transform="translate(282,268)"/>
<path d="M0 0 C0.99 0 1.98 0 3 0 C4.4606285 2.64738916 5 3.89448334 5 7 C4.01 7.495 4.01 7.495 3 8 C3 9.65 3 11.3 3 13 C2.01 12.67 1.02 12.34 0 12 C0 8 0 4 0 0 Z " fill="#748CAD" transform="translate(316,268)"/>
<path d="M0 0 C2 3 2 3 1.625 5.1875 C1.41875 5.785625 1.2125 6.38375 1 7 C0.21625 6.175 -0.5675 5.35 -1.375 4.5 C-3.63721264 1.77011494 -3.63721264 1.77011494 -6 2 C-6 4.31 -6 6.62 -6 9 C-6.33 9 -6.66 9 -7 9 C-7 6.03 -7 3.06 -7 0 C-4.27584084 -1.36207958 -2.87220643 -0.86166193 0 0 Z " fill="#7C8FB8" transform="translate(308,249)"/>
<path d="M0 0 C0.66 0.33 1.32 0.66 2 1 C1.360625 1.103125 0.72125 1.20625 0.0625 1.3125 C-0.618125 1.539375 -1.29875 1.76625 -2 2 C-2.33 2.99 -2.66 3.98 -3 5 C-3.66 5 -4.32 5 -5 5 C-5.33 5.99 -5.66 6.98 -6 8 C-7.875 9.25 -7.875 9.25 -10 10 C-10.99 9.67 -11.98 9.34 -13 9 C-8.9519972 5.29931105 -5.172581 2.04497388 0 0 Z " fill="#5CCCE7" transform="translate(78,232)"/>
<path d="M0 0 C-0.33 1.98 -0.66 3.96 -1 6 C-3.31 5.67 -5.62 5.34 -8 5 C-8.33 3.68 -8.66 2.36 -9 1 C-5.846632 0.29925156 -3.27275026 0 0 0 Z " fill="#68AAE7" transform="translate(346,228)"/>
<path d="M0 0 C0.33 0.99 0.66 1.98 1 3 C0.34 3 -0.32 3 -1 3 C-1.061875 3.886875 -1.12375 4.77375 -1.1875 5.6875 C-2.18171055 9.74081992 -3.90101124 11.29831749 -7 14 C-6.33821095 8.54024033 -3.89354461 3.89354461 0 0 Z " fill="#10BAF3" transform="translate(62,291)"/>
<path d="M0 0 C0.33 1.32 0.66 2.64 1 4 C2.32 4.33 3.64 4.66 5 5 C4.01 5 3.02 5 2 5 C2 6.32 2 7.64 2 9 C3.32 8.67 4.64 8.34 6 8 C6.33 8.99 6.66 9.98 7 11 C4.36 11 1.72 11 -1 11 C-0.67 7.37 -0.34 3.74 0 0 Z " fill="#7C96B9" transform="translate(245,250)"/>
<path d="M0 0 C0.33 0 0.66 0 1 0 C1 6.27 1 12.54 1 19 C0.01 19.33 -0.98 19.66 -2 20 C-1.33333333 13.33333333 -0.66666667 6.66666667 0 0 Z " fill="#429FE2" transform="translate(87,272)"/>
<path d="M0 0 C0.66 0 1.32 0 2 0 C0.63919813 5.19578896 -1.41210248 8.13611036 -5 12 C-5.33 12 -5.66 12 -6 12 C-6 10.35 -6 8.7 -6 7 C-4.68 6.67 -3.36 6.34 -2 6 C-1.855625 5.195625 -1.71125 4.39125 -1.5625 3.5625 C-1 1 -1 1 0 0 Z " fill="#65A7E4" transform="translate(194,196)"/>
<path d="M0 0 C-0.33 0.66 -0.66 1.32 -1 2 C-1.99 2 -2.98 2 -4 2 C-4.33 4.31 -4.66 6.62 -5 9 C-5.66 9 -6.32 9 -7 9 C-7.99928333 6.301935 -8.03624754 5.11989571 -7.1875 2.3125 C-5.25132007 -1.45795566 -3.72400487 -1.11720146 0 0 Z " fill="#779AC5" transform="translate(265,269)"/>
<path d="M0 0 C0.33 0 0.66 0 1 0 C1.02505615 0.57967529 1.0501123 1.15935059 1.07592773 1.7565918 C1.19246234 4.40042107 1.31492682 7.04394409 1.4375 9.6875 C1.47681641 10.59951172 1.51613281 11.51152344 1.55664062 12.45117188 C1.59853516 13.33740234 1.64042969 14.22363281 1.68359375 15.13671875 C1.73858032 16.35427856 1.73858032 16.35427856 1.79467773 17.59643555 C2.01037431 20.12144485 2.45899452 22.52600697 3 25 C2.01 25 1.02 25 0 25 C0 16.75 0 8.5 0 0 Z " fill="#308DF1" transform="translate(260,204)"/>
<path d="M0 0 C0.763125 0.20625 1.52625 0.4125 2.3125 0.625 C2.3125 1.945 2.3125 3.265 2.3125 4.625 C1.6525 4.625 0.9925 4.625 0.3125 4.625 C-0.3475 3.965 -1.0075 3.305 -1.6875 2.625 C-2.6775 2.955 -3.6675 3.285 -4.6875 3.625 C-4.6875 5.275 -4.6875 6.925 -4.6875 8.625 C-5.0175 8.625 -5.3475 8.625 -5.6875 8.625 C-5.875 5.25 -5.875 5.25 -5.6875 1.625 C-2.6875 -0.375 -2.6875 -0.375 0 0 Z " fill="#7D97B4" transform="translate(262.6875,248.375)"/>
<path d="M0 0 C-0.6875 1.875 -0.6875 1.875 -2 4 C-3.66666667 4.66666667 -5.33333333 5.33333333 -7 6 C-8.34410262 8.01735205 -8.34410262 8.01735205 -9 10 C-9.66 9.67 -10.32 9.34 -11 9 C-9.55936614 4.67809842 -4.74032109 0 0 0 Z " fill="#7CD6EA" transform="translate(70,178)"/>
<path d="M0 0 C1.98 0 3.96 0 6 0 C6 1.32 6 2.64 6 4 C3.03 4 0.06 4 -3 4 C-2.34 3.67 -1.68 3.34 -1 3 C-0.67 2.01 -0.34 1.02 0 0 Z " fill="#2C96F9" transform="translate(243,201)"/>
<path d="M0 0 C0.66 0.33 1.32 0.66 2 1 C-1.33333333 4.33333333 -4.66666667 7.66666667 -8 11 C-7.67 9.02 -7.34 7.04 -7 5 C-6.34 5 -5.68 5 -5 5 C-4.731875 4.360625 -4.46375 3.72125 -4.1875 3.0625 C-3 1 -3 1 0 0 Z " fill="#1EC9F4" transform="translate(66,182)"/>
<path d="M0 0 C1.32 0 2.64 0 4 0 C4 1.98 4 3.96 4 6 C2.02 6.33 0.04 6.66 -2 7 C-2 6.34 -2 5.68 -2 5 C-1.01 5 -0.02 5 1 5 C0.34 3.68 -0.32 2.36 -1 1 C-0.67 0.67 -0.34 0.34 0 0 Z " fill="#8099C2" transform="translate(379,274)"/>
<path d="M0 0 C1.65 0 3.3 0 5 0 C4.01 0.495 4.01 0.495 3 1 C3.33 3.97 3.66 6.94 4 10 C2.68 10 1.36 10 0 10 C0 6.7 0 3.4 0 0 Z " fill="#98B4D4" transform="translate(287,270)"/>
<path d="M0 0 C4.455 0.99 4.455 0.99 9 2 C9 2.99 9 3.98 9 5 C6.03 5 3.06 5 0 5 C0 3.35 0 1.7 0 0 Z " fill="#3A8CDB" transform="translate(230,225)"/>
<path d="M0 0 C0.33 0 0.66 0 1 0 C1.33 2.64 1.66 5.28 2 8 C4.31 8.33 6.62 8.66 9 9 C9 9.33 9 9.66 9 10 C7.52093108 10.02689216 6.04172517 10.04634621 4.5625 10.0625 C3.32693359 10.07990234 3.32693359 10.07990234 2.06640625 10.09765625 C0 10 0 10 -1 9 C-1.1328125 7.1875 -1.1328125 7.1875 -1.125 5 C-1.12757812 4.278125 -1.13015625 3.55625 -1.1328125 2.8125 C-1 1 -1 1 0 0 Z " fill="#77D7E8" transform="translate(51,309)"/>
<path d="M0 0 C4.75 0.75 4.75 0.75 7 3 C7.125 6.625 7.125 6.625 7 10 C6.34 10 5.68 10 5 10 C4.731875 8.865625 4.46375 7.73125 4.1875 6.5625 C3.795625 5.386875 3.40375 4.21125 3 3 C2.01 2.67 1.02 2.34 0 2 C0 1.34 0 0.68 0 0 Z " fill="#8297BD" transform="translate(330,248)"/>
<path d="M0 0 C0.33 0.66 0.66 1.32 1 2 C1.66 2.33 2.32 2.66 3 3 C3.625 6.0625 3.625 6.0625 4 9 C3.01 9.33 2.02 9.66 1 10 C-1.56687367 6.1496895 -0.83288724 4.41430237 0 0 Z " fill="#8AA4CC" transform="translate(374,270)"/>
<path d="M0 0 C1.4540625 0.0309375 1.4540625 0.0309375 2.9375 0.0625 C2.9375 0.7225 2.9375 1.3825 2.9375 2.0625 C1.9475 2.3925 0.9575 2.7225 -0.0625 3.0625 C-0.3925 4.7125 -0.7225 6.3625 -1.0625 8.0625 C-2.3825 7.7325 -3.7025 7.4025 -5.0625 7.0625 C-4.0625 5.0625 -4.0625 5.0625 -3.0625 4.0625 C-3.3925 3.0725 -3.7225 2.0825 -4.0625 1.0625 C-3.0625 0.0625 -3.0625 0.0625 0 0 Z " fill="#3493F8" transform="translate(189.0625,199.9375)"/>
<path d="M0 0 C1.98 0.99 1.98 0.99 4 2 C3.67 3.98 3.34 5.96 3 8 C2.01 8.33 1.02 8.66 0 9 C0 6.03 0 3.06 0 0 Z " fill="#38D0F2" transform="translate(48,211)"/>
<path d="M0 0 C1.485 0.99 1.485 0.99 3 2 C6.12521833 2.16699232 6.12521833 2.16699232 9 2 C9 3.32 9 4.64 9 6 C5.26512223 5.5020163 3.18762365 5.12508244 0 3 C0 2.01 0 1.02 0 0 Z " fill="#2E93FB" transform="translate(377,215)"/>
<path d="M0 0 C0.33 0 0.66 0 1 0 C1.24875561 2.26877104 1.47339246 4.54019735 1.6875 6.8125 C1.81511719 8.07707031 1.94273437 9.34164062 2.07421875 10.64453125 C2 14 2 14 -1 17 C-0.67 11.39 -0.34 5.78 0 0 Z " fill="#569AE4" transform="translate(353,219)"/>
<path d="M0 0 C-0.66 1.65 -1.32 3.3 -2 5 C-3.98 5 -5.96 5 -8 5 C-8.33 4.34 -8.66 3.68 -9 3 C-2.25 0 -2.25 0 0 0 Z " fill="#5598E3" transform="translate(324,207)"/>
<path d="M0 0 C1.65 0 3.3 0 5 0 C4.01 0.33 3.02 0.66 2 1 C2.33 1.66 2.66 2.32 3 3 C5.32156597 3.40729228 7.6568787 3.74438677 10 4 C10 4.33 10 4.66 10 5 C6.7 5 3.4 5 0 5 C0 3.35 0 1.7 0 0 Z " fill="#3A90EB" transform="translate(377,224)"/>
<path d="M0 0 C1.31223496 3.93670488 0.24296256 6.12488144 -1 10 C-1.66 10 -2.32 10 -3 10 C-3.75 7.8125 -3.75 7.8125 -4 5 C-2.0625 2.1875 -2.0625 2.1875 0 0 Z " fill="#5CD6F0" transform="translate(58,187)"/>
<path d="M0 0 C5.75 -0.125 5.75 -0.125 8 1 C8 2.65 8 4.3 8 6 C4.942048 4.26440562 2.36620011 2.61527381 0 0 Z " fill="#86A3C6" transform="translate(244,268)"/>
<path d="M0 0 C1.32 0 2.64 0 4 0 C3.67 3.63 3.34 7.26 3 11 C2.67 11 2.34 11 2 11 C2 8.36 2 5.72 2 3 C1.01 3.33 0.02 3.66 -1 4 C-0.67 2.68 -0.34 1.36 0 0 Z " fill="#B0CADE" transform="translate(324,268)"/>
<path d="M0 0 C0.99 0.33 1.98 0.66 3 1 C1.68 3.64 0.36 6.28 -1 9 C-1.66 8.67 -2.32 8.34 -3 8 C-3 7.34 -3 6.68 -3 6 C-2.34 6 -1.68 6 -1 6 C-1.0309375 4.7934375 -1.0309375 4.7934375 -1.0625 3.5625 C-1 1 -1 1 0 0 Z " fill="#5E82A7" transform="translate(362,248)"/>
<path d="M0 0 C1.32 1.65 2.64 3.3 4 5 C3.67 5.66 3.34 6.32 3 7 C1.0625 6.1875 1.0625 6.1875 -1 5 C-1.33 4.01 -1.66 3.02 -2 2 C-1.34 1.34 -0.68 0.68 0 0 Z " fill="#859AC6" transform="translate(250,274)"/>
<path d="M0 0 C2.375 -0.1875 2.375 -0.1875 5 0 C5.66 0.99 6.32 1.98 7 3 C4.36 3.33 1.72 3.66 -1 4 C-0.67 2.68 -0.34 1.36 0 0 Z " fill="#12CDF9" transform="translate(55,313)"/>
<path d="M0 0 C0.66 0.99 1.32 1.98 2 3 C4.56282742 3.72965366 4.56282742 3.72965366 7 4 C6.34 4.66 5.68 5.32 5 6 C1.875 5.625 1.875 5.625 -1 5 C-0.67 3.35 -0.34 1.7 0 0 Z " fill="#99AACD" transform="translate(260,275)"/>
<path d="M0 0 C1.98 0.99 1.98 0.99 4 2 C3.34 3.65 2.68 5.3 2 7 C1.34 7 0.68 7 0 7 C0 4.69 0 2.38 0 0 Z " fill="#3094F9" transform="translate(176,208)"/>
<path d="M0 0 C0.66 0.33 1.32 0.66 2 1 C1.34 2.32 0.68 3.64 0 5 C-0.66 5 -1.32 5 -2 5 C-2.66 6.32 -3.32 7.64 -4 9 C-3.38461538 3.46153846 -3.38461538 3.46153846 -1.4375 1.125 C-0.963125 0.75375 -0.48875 0.3825 0 0 Z " fill="#6EA5E4" transform="translate(378,208)"/>
<path d="M0 0 C0.268125 0.639375 0.53625 1.27875 0.8125 1.9375 C1.88667752 4.33131686 1.88667752 4.33131686 5 5 C3.1875 5.6875 3.1875 5.6875 1 6 C-0.75 4.5625 -0.75 4.5625 -2 3 C-1 1 -1 1 0 0 Z " fill="#9FAFC6" transform="translate(293,275)"/>
<path d="M0 0 C0.66 1.65 1.32 3.3 2 5 C0.35 4.67 -1.3 4.34 -3 4 C-3.33 3.01 -3.66 2.02 -4 1 C-2 0 -2 0 0 0 Z " fill="#3192F9" transform="translate(298,208)"/>
<path d="M0 0 C0.91058531 3.07322544 1.08886184 5.80097361 1 9 C0.01 8.67 -0.98 8.34 -2 8 C-1.125 1.125 -1.125 1.125 0 0 Z " fill="#27C7EF" transform="translate(55,193)"/>
<path d="M0 0 C0.33 0 0.66 0 1 0 C1 2.64 1 5.28 1 8 C0.01 7.67 -0.98 7.34 -2 7 C-2 5.68 -2 4.36 -2 3 C-1.34 3 -0.68 3 0 3 C0 2.01 0 1.02 0 0 Z " fill="#6B8FB6" transform="translate(339,272)"/>
<path d="M0 0 C0 1.98 0 3.96 0 6 C-1.32 6 -2.64 6 -4 6 C-3.625 3.5625 -3.625 3.5625 -3 1 C-1 0 -1 0 0 0 Z " fill="#8498B8" transform="translate(362,255)"/>
<path d="M0 0 C0.99 0.33 1.98 0.66 3 1 C1.6875 3 1.6875 3 0 5 C-0.99 5 -1.98 5 -3 5 C-1.125 1.125 -1.125 1.125 0 0 Z " fill="#609BDC" transform="translate(390,225)"/>
<path d="M0 0 C0.33 0.66 0.66 1.32 1 2 C1.66 2.33 2.32 2.66 3 3 C3.625 5.5625 3.625 5.5625 4 8 C2.68 7.67 1.36 7.34 0 7 C0 4.69 0 2.38 0 0 Z " fill="#69A7EB" transform="translate(294,214)"/>
</svg>
